<?xml version="1.0" standalone="no"?><!DOCTYPE svg PUBLIC "-//W3C//DTD SVG 1.1//EN"
        "http://www.w3.org/Graphics/SVG/1.1/DTD/svg11.dtd">
<svg t="1545142663514" class="icon" style="" viewBox="0 0 2668 1024" version="1.1" xmlns="http://www.w3.org/2000/svg"
     p-id="8148" xmlns:xlink="http://www.w3.org/1999/xlink" width="521.09375" height="200">
    <defs>
        <style type="text/css"></style>
    </defs>
    <path d="M2561.349998 618.963436a106.987712 106.987712 0 0 0 106.878141-106.862488c0-58.980205-47.897937-106.909447-106.878141-106.909447h-298.141177V213.865853h298.141177a106.972059 106.972059 0 0 0 106.878141-106.862488c0-58.980205-47.897937-106.909447-106.878141-106.909447h-405.144542c-58.870634 0-106.784224 47.929243-106.784224 106.909447v810.038637c0 59.01151 47.991854 106.940753 106.784224 106.940753h405.144542c58.886287 0 106.878141-47.929243 106.878141-106.940753 0-58.90194-47.991854-106.862488-106.878141-106.862488h-298.141177V618.963436h298.141177zM1799.052768 0.10957a107.003365 107.003365 0 0 0-106.893794 106.909448v501.143903L1276.965257 42.904655A107.050323 107.050323 0 0 0 1157.611738 5.603746 106.721612 106.721612 0 0 0 1084.590863 107.019018v810.038637a106.987712 106.987712 0 0 0 106.893795 106.940753 106.987712 106.987712 0 0 0 106.878141-106.940753V415.945057l415.0998 565.289572a107.56687 107.56687 0 0 0 85.386681 42.763779c11.536202 0 22.962834-1.815739 34.013796-5.509828a106.533777 106.533777 0 0 0 73.036528-101.430925V107.019018c0-58.980205-47.929243-106.909447-106.846836-106.909448zM824.048001 0.10957a106.972059 106.972059 0 0 0-106.909447 106.909448v810.038637c0 59.01151 47.91359 106.940753 106.909447 106.940753 58.870634 0 106.846836-47.929243 106.846836-106.940753V107.019018c0-58.980205-47.976201-106.909447-106.846836-106.909448zM511.928766 810.195167h-298.188136V107.019018A106.940753 106.940753 0 0 0 106.893794 0.10957 106.972059 106.972059 0 0 0 0 107.019018v810.038637a106.987712 106.987712 0 0 0 106.893794 106.940753h405.034972c58.964552 0 106.846836-47.929243 106.846835-106.940753a106.972059 106.972059 0 0 0-106.846835-106.862488z"
          fill="#2c2c2c" p-id="8149"></path>
</svg>